:SAMPLES-PER-SECOND 30
:FRAME-RANGE 1-2045
:FULLY-SPECIFIED
:DEGREES
1470
root  3.71334 32.4413 7.45033 12.8177 -56.6043 10.3141
RightUpLeg  -65.2926 -10.7894 -20.5282
RightLeg  56.9871 -3.22487 -5.77505
RightFoot  -7.13378 -0.849734 21.5586
RightToes  -5.28216e-011 1.2921e-014 -6.02303e-014
Spine  43.3897 -1.77176 3.60055
Spine1  -2.62301 0.480816 -0.504872
HEad  -24.9928 -10.705 4.41751
LeftShoulder1  2.75604 -16.328 -6.56772
LeftArm  -14.658 -60.17 -49.4631
LeftForeArm  -26.5062 -18.7112 -5.85119
LeftHand  0.0779997 1.05925 -2.2771
RightShoulder  0.940525 10.1769 -1.54753
RightArm  -75.4445 61.7385 3.20346
RightForeArm  20.2497 8.24317 -12.4077
RightHand  0.495407 2.40223 7.18431
LeftUpLeg  -56.607 4.87921 27.7847
LeftLeg  58.405 -4.00145 -6.4481
LeftFoot  -17.0669 -0.931292 -20.46
LeftToes  9.43379e-011 5.24309e-011 -4.66411e-011
1471
root  3.17015 32.4163 6.86174 12.7636 -57.479 11.3356
RightUpLeg  -67.2972 -10.4957 -19.2187
RightLeg  58.3925 -2.78737 -5.3447
RightFoot  -8.21977 -0.615107 20.3062
RightToes  -5.28216e-011 1.2921e-014 -6.02303e-014
Spine  44.5311 -1.33643 3.75672
Spine1  -1.60616 1.18805 -0.613192
HEad  -26.0752 -10.8569 3.73708
LeftShoulder1  2.90456 -17.5808 -6.41067
LeftArm  -21.9454 -62.5103 -43.669
LeftForeArm  -28.6871 -13.6566 -4.93166
LeftHand  0.118158 1.17767 -3.48338
RightShoulder  0.729758 10.6441 -3.54153
RightArm  -76.8706 64.4065 -1.62528
RightForeArm  15.4812 3.74554 -14.2782
RightHand  0.454985 1.52237 7.51004
LeftUpLeg  -61.6752 10.0676 20.3123
LeftLeg  57.3524 -6.14632 -9.71
LeftFoot  -21.1101 -1.86825 -23.05
LeftToes  9.43379e-011 5.24309e-011 -4.66411e-011
1472
root  2.65604 32.216 6.46791 13.5018 -58.605 11.0513
RightUpLeg  -69.3139 -10.3726 -17.215
RightLeg  60.379 -1.97797 -4.26826
RightFoot  -9.64686 -0.34575 18.7566
RightToes  -5.28216e-011 1.2921e-014 -6.02303e-014
Spine  44.9968 -1.19487 4.09605
Spine1  -0.34776 1.55762 -0.908665
HEad  -26.4399 -10.0673 3.38785
LeftShoulder1  3.1093 -18.0291 -7.15521
LeftArm  -28.4349 -62.8268 -37.541
LeftForeArm  -28.6577 -11.6189 -3.69912
LeftHand  0.133682 1.08943 -3.82149
RightShoulder  0.597125 10.5051 -4.58389
RightArm  -77.2901 67.2402 -4.22145
RightForeArm  11.747 0.962316 -14.2377
RightHand  0.38463 0.376179 7.73015
LeftUpLeg  -64.9269 13.0487 14.3418
LeftLeg  54.2906 -10.9864 -15.4775
LeftFoot  -21.2973 -2.23941 -26.7143
LeftToes  9.43379e-011 5.24309e-011 -4.66411e-011
1473
root  2.11629 32.021 6.14925 14.3898 -59.4716 10.199
RightUpLeg  -70.8116 -10.6578 -14.7286
RightLeg  62.4652 -1.15993 -2.96782
RightFoot  -10.9021 -0.139423 16.8185
RightToes  -5.28216e-011 1.2921e-014 -6.02303e-014
Spine  44.8835 -1.67464 4.44343
Spine1  1.00623 1.89416 -2.29827
HEad  -26.3275 -9.85183 3.52785
LeftShoulder1  3.07553 -17.556 -7.3484
LeftArm  -32.039 -61.8283 -33.791
LeftForeArm  -29.0307 -11.1653 -3.02503
LeftHand  0.14935 1.07114 -4.22879
RightShoulder  0.556762 10.7305 -4.99143
RightArm  -77.4397 69.4378 -5.36711
RightForeArm  10.6893 -0.636658 -13.7392
RightHand  0.404549 0.406717 8.08444
LeftUpLeg  -65.2064 13.4304 11.3086
LeftLeg  48.5157 -15.6301 -17.7091
LeftFoot  -14.2029 -0.586772 -26.4301
LeftToes  9.43379e-011 5.24309e-011 -4.66411e-011
1474
root  1.71228 31.6315 6.19834 15.6265 -61.0264 8.35419
RightUpLeg  -72.111 -10.8279 -12.4613
RightLeg  65.0485 -0.104986 -0.865464
RightFoot  -12.194 0.0305143 15.2061
RightToes  -5.28216e-011 1.2921e-014 -6.02303e-014
Spine  45.0177 -2.37515 6.43104
Spine1  0.958795 1.91827 -3.85662
HEad  -24.5707 -9.80924 4.23674
LeftShoulder1  2.83121 -16.8389 -6.58297
LeftArm  -32.4477 -59.9158 -32.7842
LeftForeArm  -29.0474 -11.3161 -3.02965
LeftHand  0.170307 0.906492 -4.59517
RightShoulder  0.656916 11.1265 -4.31655
RightArm  -74.899 70.5363 -1.90354
RightForeArm  11.1443 0.786496 -12.8208
RightHand  0.406234 0.448733 8.0545
LeftUpLeg  -64.7722 8.69458 17.1601
LeftLeg  50.661 -10.176 -12.5987
LeftFoot  -11.4616 0.0465158 -20.4491
LeftToes  9.43379e-011 5.24309e-011 -4.66411e-011
1475
root  1.29811 31.4897 6.19918 14.8813 -63.3454 8.44775
RightUpLeg  -72.3765 -9.42711 -11.9903
RightLeg  66.4164 0.32091 0.148533
RightFoot  -13.1863 0.135676 13.9481
RightToes  -5.28216e-011 1.2921e-014 -6.02303e-014
Spine  45.9078 -2.7584 6.4826
Spine1  -0.162123 2.00648 -6.13835
HEad  -23.2162 -9.70082 6.35486
LeftShoulder1  2.52489 -15.5914 -5.81318
LeftArm  -32.2361 -57.6186 -32.7751
LeftForeArm  -28.1176 -12.2781 -3.28071
LeftHand  0.188053 0.732107 -4.84222
RightShoulder  0.883114 11.6728 -2.77186
RightArm  -70.053 71.4092 4.6368
RightForeArm  12.3025 2.93217 -11.6546
RightHand  0.380309 0.560761 7.3835
LeftUpLeg  -63.1001 6.94094 19.9164
LeftLeg  51.8487 -7.51641 -9.6874
LeftFoot  -12.0186 -0.0528379 -20.8296
LeftToes  9.43379e-011 5.24309e-011 -4.66411e-011
1476
root  0.96465 31.5793 6.21641 13.9142 -64.9294 8.97925
RightUpLeg  -72.0078 -8.5722 -11.7163
RightLeg  66.6961 0.579956 0.814904
RightFoot  -13.3721 0.141395 13.0685
RightToes  -5.28216e-011 1.2921e-014 -6.02303e-014
Spine  46.2352 -3.36468 6.30243
Spine1  -1.00152 1.61623 -7.62796
HEad  -22.5581 -10.5578 9.31269
LeftShoulder1  2.28983 -14.0648 -5.62106
LeftArm  -33.1271 -56.0644 -33.2725
LeftForeArm  -25.6498 -12.8712 -3.1472
LeftHand  0.182841 0.561923 -4.51877
RightShoulder  1.07757 12.2019 -1.56383
RightArm  -61.7683 71.0101 13.5199
RightForeArm  12.5683 5.23016 -9.61149
RightHand  0.359469 1.11229 6.32455
LeftUpLeg  -61.2954 7.25506 20.192
LeftLeg  51.9364 -6.83629 -8.81473
LeftFoot  -12.6432 -0.169512 -21.3156
LeftToes  9.43379e-011 5.24309e-011 -4.66411e-011
1477
root  0.743792 31.8999 6.30753 13.0559 -65.73 9.62213
RightUpLeg  -70.8814 -7.87377 -12.0942
RightLeg  65.6988 0.698404 1.06336
RightFoot  -13.0064 0.100571 12.9713
RightToes  -5.28216e-011 1.2921e-014 -6.02303e-014
Spine  45.48 -3.30353 6.36812
Spine1  -0.688915 1.4167 -6.74921
HEad  -21.9409 -12.993 12.1934
LeftShoulder1  2.37536 -13.6304 -6.57207
LeftArm  -34.0597 -55.0638 -34.2046
LeftForeArm  -21.9042 -14.1703 -3.25315
LeftHand  0.187533 0.498201 -4.56274
RightShoulder  1.21976 12.2309 -0.532778
RightArm  -54.9188 69.0952 21.9541
RightForeArm  12.6151 7.82347 -8.27416
RightHand  0.35605 1.96375 5.45788
LeftUpLeg  -59.636 7.37223 19.7685
LeftLeg  50.848 -6.58302 -8.14497
LeftFoot  -12.2549 -0.0983505 -21.259
LeftToes  9.43379e-011 5.24309e-011 -4.66411e-011
1478
root  0.593673 32.4193 6.44728 10.6349 -66.9966 11.8073
RightUpLeg  -69.2135 -6.15719 -13.743
RightLeg  63.6673 0.524911 0.581226
RightFoot  -11.8521 -0.0202433 13.5392
RightToes  -5.28216e-011 1.2921e-014 -6.02303e-014
Spine  45.1077 -3.24451 6.04832
Spine1  -0.878721 1.16486 -6.36737
HEad  -21.309 -15.2709 15.3683
LeftShoulder1  2.41623 -13.2375 -7.22575
LeftArm  -33.1311 -54.2226 -35.2997
LeftForeArm  -17.1479 -15.9368 -3.93788
LeftHand  0.184018 0.351841 -4.32723
RightShoulder  1.50561 11.7983 1.87889
RightArm  -51.2168 66.1339 29.656
RightForeArm  14.4786 11.2321 -6.75947
RightHand  0.429388 3.08047 5.65223
LeftUpLeg  -57.0755 7.54403 18.5274
LeftLeg  48.5573 -6.43123 -7.31386
LeftFoot  -11.5036 0.0380446 -21.2245
LeftToes  9.43379e-011 5.24309e-011 -4.66411e-011
